o empty_2
v 25.286243438720703 -23.6771183013916 0 0.6129032373428345 0.6129032373428345 0.6129032373428345
v 33.14810562133789 10.059969902038574 0 0.6129032373428345 0.6129032373428345 0.6129032373428345
v 25.286243438720703 -23.6771183013916 70 0.6129032373428345 0.6129032373428345 0.6129032373428345
v 25.286243438720703 -23.6771183013916 70 0.6129032373428345 0.6129032373428345 0.6129032373428345
v 33.14810562133789 10.059969902038574 0 0.6129032373428345 0.6129032373428345 0.6129032373428345
v 33.14810562133789 10.059969902038574 70 0.6129032373428345 0.6129032373428345 0.6129032373428345
v -7.8618645668029785 -33.73708724975586 0 0.6129032373428345 0.6129032373428345 0.6129032373428345
v 25.286243438720703 -23.6771183013916 0 0.6129032373428345 0.6129032373428345 0.6129032373428345
v -7.8618645668029785 -33.73708724975586 70 0.6129032373428345 0.6129032373428345 0.6129032373428345
v -7.8618645668029785 -33.73708724975586 70 0.6129032373428345 0.6129032373428345 0.6129032373428345
v 25.286243438720703 -23.6771183013916 0 0.6129032373428345 0.6129032373428345 0.6129032373428345
v 25.286243438720703 -23.6771183013916 70 0.6129032373428345 0.6129032373428345 0.6129032373428345
v -33.14810562133789 -10.059969902038574 0 0.6129032373428345 0.6129032373428345 0.6129032373428345
v -7.8618645668029785 -33.73708724975586 0 0.6129032373428345 0.6129032373428345 0.6129032373428345
v -33.14810562133789 -10.059969902038574 70 0.6129032373428345 0.6129032373428345 0.6129032373428345
v -33.14810562133789 -10.059969902038574 70 0.6129032373428345 0.6129032373428345 0.6129032373428345
v -7.8618645668029785 -33.73708724975586 0 0.6129032373428345 0.6129032373428345 0.6129032373428345
v -7.8618645668029785 -33.73708724975586 70 0.6129032373428345 0.6129032373428345 0.6129032373428345
v -25.286243438720703 23.6771183013916 0 0.6129032373428345 0.6129032373428345 0.6129032373428345
v -33.14810562133789 -10.059969902038574 0 0.6129032373428345 0.6129032373428345 0.6129032373428345
v -25.286243438720703 23.6771183013916 70 0.6129032373428345 0.6129032373428345 0.6129032373428345
v -25.286243438720703 23.6771183013916 70 0.6129032373428345 0.6129032373428345 0.6129032373428345
v -33.14810562133789 -10.059969902038574 0 0.6129032373428345 0.6129032373428345 0.6129032373428345
v -33.14810562133789 -10.059969902038574 70 0.6129032373428345 0.6129032373428345 0.6129032373428345
v 7.8618645668029785 33.73708724975586 0 0.6129032373428345 0.6129032373428345 0.6129032373428345
v -25.286243438720703 23.6771183013916 0 0.6129032373428345 0.6129032373428345 0.6129032373428345
v 7.8618645668029785 33.73708724975586 70 0.6129032373428345 0.6129032373428345 0.6129032373428345
v 7.8618645668029785 33.73708724975586 70 0.6129032373428345 0.6129032373428345 0.6129032373428345
v -25.286243438720703 23.6771183013916 0 0.6129032373428345 0.6129032373428345 0.6129032373428345
v -25.286243438720703 23.6771183013916 70 0.6129032373428345 0.6129032373428345 0.6129032373428345
v 33.14810562133789 10.059969902038574 0 0.6129032373428345 0.6129032373428345 0.6129032373428345
v 7.8618645668029785 33.73708724975586 0 0.6129032373428345 0.6129032373428345 0.6129032373428345
v 33.14810562133789 10.059969902038574 70 0.6129032373428345 0.6129032373428345 0.6129032373428345
v 33.14810562133789 10.059969902038574 70 0.6129032373428345 0.6129032373428345 0.6129032373428345
v 7.8618645668029785 33.73708724975586 0 0.6129032373428345 0.6129032373428345 0.6129032373428345
v 7.8618645668029785 33.73708724975586 70 0.6129032373428345 0.6129032373428345 0.6129032373428345
v 33.14810562133789 10.059969902038574 70 0.6129032373428345 0.6129032373428345 0.6129032373428345
v 7.8618645668029785 33.73708724975586 70 0.6129032373428345 0.6129032373428345 0.6129032373428345
v 25.286243438720703 -23.6771183013916 70 0.6129032373428345 0.6129032373428345 0.6129032373428345
v 25.286243438720703 -23.6771183013916 70 0.6129032373428345 0.6129032373428345 0.6129032373428345
v 7.8618645668029785 33.73708724975586 70 0.6129032373428345 0.6129032373428345 0.6129032373428345
v -7.8618645668029785 -33.73708724975586 70 0.6129032373428345 0.6129032373428345 0.6129032373428345
v -7.8618645668029785 -33.73708724975586 70 0.6129032373428345 0.6129032373428345 0.6129032373428345
v 7.8618645668029785 33.73708724975586 70 0.6129032373428345 0.6129032373428345 0.6129032373428345
v -25.286243438720703 23.6771183013916 70 0.6129032373428345 0.6129032373428345 0.6129032373428345
v -7.8618645668029785 -33.73708724975586 70 0.6129032373428345 0.6129032373428345 0.6129032373428345
v -25.286243438720703 23.6771183013916 70 0.6129032373428345 0.6129032373428345 0.6129032373428345
v -33.14810562133789 -10.059969902038574 70 0.6129032373428345 0.6129032373428345 0.6129032373428345
v 33.14810562133789 10.059969902038574 0 0.6129032373428345 0.6129032373428345 0.6129032373428345
v 25.286243438720703 -23.6771183013916 0 0.6129032373428345 0.6129032373428345 0.6129032373428345
v 7.8618645668029785 33.73708724975586 0 0.6129032373428345 0.6129032373428345 0.6129032373428345
v 7.8618645668029785 33.73708724975586 0 0.6129032373428345 0.6129032373428345 0.6129032373428345
v 25.286243438720703 -23.6771183013916 0 0.6129032373428345 0.6129032373428345 0.6129032373428345
v -7.8618645668029785 -33.73708724975586 0 0.6129032373428345 0.6129032373428345 0.6129032373428345
v 7.8618645668029785 33.73708724975586 0 0.6129032373428345 0.6129032373428345 0.6129032373428345
v -7.8618645668029785 -33.73708724975586 0 0.6129032373428345 0.6129032373428345 0.6129032373428345
v -25.286243438720703 23.6771183013916 0 0.6129032373428345 0.6129032373428345 0.6129032373428345
v -25.286243438720703 23.6771183013916 0 0.6129032373428345 0.6129032373428345 0.6129032373428345
v -7.8618645668029785 -33.73708724975586 0 0.6129032373428345 0.6129032373428345 0.6129032373428345
v -33.14810562133789 -10.059969902038574 0 0.6129032373428345 0.6129032373428345 0.6129032373428345
vn 0.973905834971397 -0.22695247213605302 0
vn 0.973905834971397 -0.22695247213605302 0
vn 0.973905834971397 -0.22695247213605302 0
vn 0.973905834971397 -0.22695247213605302 0
vn 0.973905834971397 -0.22695247213605302 0
vn 0.973905834971397 -0.22695247213605302 0
vn 0.2904063083989565 -0.9569034308863619 3.684751622617009e-18
vn 0.2904063083989565 -0.9569034308863619 3.684751622617009e-18
vn 0.2904063083989565 -0.9569034308863619 3.684751622617009e-18
vn 0.2904063083989565 -0.9569034308863619 0
vn 0.2904063083989565 -0.9569034308863619 0
vn 0.2904063083989565 -0.9569034308863619 0
vn -0.683499515881824 -0.7299509653321326 1.0642661283911687e-16
vn -0.683499515881824 -0.7299509653321326 1.0642661283911687e-16
vn -0.683499515881824 -0.7299509653321326 1.0642661283911687e-16
vn -0.683499515881824 -0.7299509653321326 -4.688366080765655e-17
vn -0.683499515881824 -0.7299509653321326 -4.688366080765655e-17
vn -0.683499515881824 -0.7299509653321326 -4.688366080765655e-17
vn -0.973905834971397 0.22695247213605302 -9.88573846472143e-17
vn -0.973905834971397 0.22695247213605302 -9.88573846472143e-17
vn -0.973905834971397 0.22695247213605302 -9.88573846472143e-17
vn -0.973905834971397 0.22695247213605302 7.032549087414599e-17
vn -0.973905834971397 0.22695247213605302 7.032549087414599e-17
vn -0.973905834971397 0.22695247213605302 7.032549087414599e-17
vn -0.2904063083989565 0.9569034308863619 0
vn -0.2904063083989565 0.9569034308863619 0
vn -0.2904063083989565 0.9569034308863619 0
vn -0.2904063083989565 0.9569034308863619 0
vn -0.2904063083989565 0.9569034308863619 0
vn -0.2904063083989565 0.9569034308863619 0
vn 0.683499515881824 0.7299509653321326 0
vn 0.683499515881824 0.7299509653321326 0
vn 0.683499515881824 0.7299509653321326 0
vn 0.683499515881824 0.7299509653321326 0
vn 0.683499515881824 0.7299509653321326 0
vn 0.683499515881824 0.7299509653321326 0
vn 0 0 1
vn 0 0 1
vn 0 0 1
vn 0 0 1
vn 0 0 1
vn 0 0 1
vn 0 0 1
vn 0 0 1
vn 0 0 1
vn 0 0 1
vn 0 0 1
vn 0 0 1
vn 0 0 -1
vn 0 0 -1
vn 0 0 -1
vn 0 0 -1
vn 0 0 -1
vn 0 0 -1
vn 0 0 -1
vn 0 0 -1
vn 0 0 -1
vn 0 0 -1
vn 0 0 -1
vn 0 0 -1
f 1//1 2//2 3//3
f 4//4 5//5 6//6
f 7//7 8//8 9//9
f 10//10 11//11 12//12
f 13//13 14//14 15//15
f 16//16 17//17 18//18
f 19//19 20//20 21//21
f 22//22 23//23 24//24
f 25//25 26//26 27//27
f 28//28 29//29 30//30
f 31//31 32//32 33//33
f 34//34 35//35 36//36
f 37//37 38//38 39//39
f 40//40 41//41 42//42
f 43//43 44//44 45//45
f 46//46 47//47 48//48
f 49//49 50//50 51//51
f 52//52 53//53 54//54
f 55//55 56//56 57//57
f 58//58 59//59 60//60
